<svg width="14" height="16" viewBox="0 0 14 16" fill="none" xmlns="http://www.w3.org/2000/svg">
<path d="M4.28544 2.14123H4.14258C4.22115 2.14123 4.28544 2.07694 4.28544 1.99837V2.14123H9.71401V1.99837C9.71401 2.07694 9.77829 2.14123 9.85687 2.14123H9.71401V3.42694H10.9997V1.99837C10.9997 1.36801 10.4872 0.855515 9.85687 0.855515H4.14258C3.51222 0.855515 2.99972 1.36801 2.99972 1.99837V3.42694H4.28544V2.14123ZM13.2854 3.42694H0.714007C0.397935 3.42694 0.142578 3.6823 0.142578 3.99837V4.5698C0.142578 4.64837 0.206864 4.71266 0.285435 4.71266H1.36401L1.80508 14.0519C1.83365 14.6609 2.33722 15.1412 2.94615 15.1412H11.0533C11.664 15.1412 12.1658 14.6627 12.1944 14.0519L12.6354 4.71266H13.714C13.7926 4.71266 13.8569 4.64837 13.8569 4.5698V3.99837C13.8569 3.6823 13.6015 3.42694 13.2854 3.42694ZM10.9158 13.8555H3.08365L2.65151 4.71266H11.3479L10.9158 13.8555Z" fill="black" fill-opacity="0.65"/>
</svg>
